<svg width="33" height="33" viewBox="0 0 33 33" fill="none" xmlns="http://www.w3.org/2000/svg">
<path d="M16.4 30.1333C23.7638 30.1333 29.7334 24.1638 29.7334 16.8C29.7334 9.43621 23.7638 3.46667 16.4 3.46667C9.03623 3.46667 3.0667 9.43621 3.0667 16.8C3.0667 24.1638 9.03623 30.1333 16.4 30.1333Z" stroke="#60A5FA" stroke-width="2" stroke-linecap="round" stroke-linejoin="round"/>
<path d="M16.4 24.8C20.8183 24.8 24.4 21.2183 24.4 16.8C24.4 12.3818 20.8183 8.80005 16.4 8.80005C11.9817 8.80005 8.40002 12.3818 8.40002 16.8C8.40002 21.2183 11.9817 24.8 16.4 24.8Z" stroke="#60A5FA" stroke-width="2" stroke-linecap="round" stroke-linejoin="round"/>
<path d="M16.4 19.4668C17.8728 19.4668 19.0667 18.2728 19.0667 16.8001C19.0667 15.3273 17.8728 14.1334 16.4 14.1334C14.9273 14.1334 13.7334 15.3273 13.7334 16.8001C13.7334 18.2728 14.9273 19.4668 16.4 19.4668Z" stroke="#60A5FA" stroke-width="2" stroke-linecap="round" stroke-linejoin="round"/>
</svg>
