<svg width="32" height="33" viewBox="0 0 32 33" fill="none" xmlns="http://www.w3.org/2000/svg">
<path d="M26.6667 17.7332C26.6667 24.3999 22 27.7332 16.4533 29.6666C16.1629 29.765 15.8474 29.7603 15.56 29.6532C10 27.7332 5.33334 24.3999 5.33334 17.7332V8.39991C5.33334 8.04629 5.47382 7.70715 5.72387 7.4571C5.97392 7.20705 6.31305 7.06658 6.66668 7.06658C9.33334 7.06658 12.6667 5.46658 14.9867 3.43991C15.2691 3.19858 15.6285 3.06598 16 3.06598C16.3715 3.06598 16.7309 3.19858 17.0133 3.43991C19.3467 5.47991 22.6667 7.06658 25.3333 7.06658C25.687 7.06658 26.0261 7.20705 26.2762 7.4571C26.5262 7.70715 26.6667 8.04629 26.6667 8.39991V17.7332Z" stroke="#C084FC" stroke-width="2" stroke-linecap="round" stroke-linejoin="round"/>
</svg>
