<svg width="32" height="33" viewBox="0 0 32 33" fill="none" xmlns="http://www.w3.org/2000/svg">
<path d="M6.00001 22.8C4.00001 24.48 3.33334 29.4667 3.33334 29.4667C3.33334 29.4667 8.32001 28.8 10 26.8C10.9467 25.68 10.9333 23.96 9.88001 22.92C9.36175 22.4253 8.67907 22.1395 7.96298 22.1174C7.24689 22.0952 6.54785 22.3383 6.00001 22.8Z" stroke="#C084FC" stroke-width="2" stroke-linecap="round" stroke-linejoin="round"/>
<path d="M16 20.8001L12 16.8001C12.7095 14.9593 13.6029 13.1948 14.6667 11.5334C16.2202 9.04941 18.3835 7.00416 20.9507 5.59222C23.5178 4.18027 26.4036 3.44859 29.3333 3.46676C29.3333 7.09343 28.2933 13.4668 21.3333 18.1334C19.6492 19.1984 17.8625 20.0918 16 20.8001Z" stroke="#C084FC" stroke-width="2" stroke-linecap="round" stroke-linejoin="round"/>
<path d="M12 16.8H5.33334C5.33334 16.8 6.06668 12.76 8.00001 11.4667C10.16 10.0267 14.6667 11.4667 14.6667 11.4667" stroke="#C084FC" stroke-width="2" stroke-linecap="round" stroke-linejoin="round"/>
<path d="M16 20.8001V27.4668C16 27.4668 20.04 26.7334 21.3333 24.8001C22.7733 22.6401 21.3333 18.1334 21.3333 18.1334" stroke="#C084FC" stroke-width="2" stroke-linecap="round" stroke-linejoin="round"/>
</svg>
