<svg width="33" height="33" viewBox="0 0 33 33" fill="none" xmlns="http://www.w3.org/2000/svg">
<path d="M5.53335 19.0666C5.28103 19.0674 5.03365 18.9967 4.81995 18.8626C4.60625 18.7284 4.43499 18.5364 4.32608 18.3088C4.21717 18.0812 4.17507 17.8274 4.20468 17.5768C4.23429 17.3262 4.33439 17.0892 4.49335 16.8932L17.6933 3.29325C17.7924 3.17896 17.9273 3.10172 18.076 3.07423C18.2247 3.04673 18.3783 3.0706 18.5117 3.14192C18.645 3.21324 18.7501 3.32778 18.8098 3.46673C18.8695 3.60567 18.8801 3.76078 18.84 3.90658L16.28 11.9332C16.2045 12.1353 16.1792 12.3526 16.2061 12.5666C16.2331 12.7806 16.3116 12.9848 16.4348 13.1618C16.558 13.3388 16.7224 13.4833 16.9137 13.5828C17.105 13.6823 17.3177 13.734 17.5333 13.7332H26.8667C27.119 13.7324 27.3664 13.8031 27.5801 13.9373C27.7938 14.0714 27.965 14.2634 28.0739 14.491C28.1829 14.7186 28.225 14.9725 28.1953 15.223C28.1657 15.4736 28.0656 15.7106 27.9067 15.9066L14.7067 29.5066C14.6077 29.6209 14.4727 29.6981 14.324 29.7256C14.1753 29.7531 14.0217 29.7292 13.8884 29.6579C13.755 29.5866 13.6499 29.4721 13.5902 29.3331C13.5306 29.1942 13.5199 29.0391 13.56 28.8933L16.12 20.8666C16.1955 20.6646 16.2209 20.4472 16.1939 20.2332C16.1669 20.0193 16.0885 19.815 15.9652 19.638C15.842 19.461 15.6776 19.3166 15.4863 19.217C15.295 19.1175 15.0824 19.0659 14.8667 19.0666H5.53335Z" stroke="#60A5FA" stroke-width="2" stroke-linecap="round" stroke-linejoin="round"/>
</svg>
