<svg width="19" height="19" viewBox="0 0 19 19" fill="none" xmlns="http://www.w3.org/2000/svg">
<g clip-path="url(#clip0_1_384)">
<path d="M11.7895 16.8645C11.818 16.9355 11.8675 16.9961 11.9315 17.0382C11.9954 17.0802 12.0707 17.1017 12.1471 17.0997C12.2236 17.0978 12.2977 17.0725 12.3594 17.0272C12.4211 16.9819 12.4674 16.9189 12.4923 16.8465L17.3673 2.59652C17.3913 2.53006 17.3958 2.45815 17.3805 2.38918C17.3651 2.32022 17.3304 2.25706 17.2804 2.2071C17.2305 2.15714 17.1673 2.12244 17.0983 2.10706C17.0294 2.09168 16.9575 2.09626 16.891 2.12027L2.64101 6.99527C2.56863 7.02009 2.50558 7.06646 2.46032 7.12815C2.41505 7.18984 2.38974 7.2639 2.38778 7.34039C2.38582 7.41688 2.40731 7.49214 2.44935 7.55606C2.4914 7.61999 2.552 7.66952 2.62301 7.69802L8.57051 10.083C8.75853 10.1583 8.92935 10.2709 9.07269 10.4139C9.21602 10.557 9.3289 10.7276 9.40451 10.9155L11.7895 16.8645Z" stroke="white" stroke-width="2" stroke-linecap="round" stroke-linejoin="round"/>
<path d="M17.278 2.21021L9.07301 10.4145" stroke="white" stroke-width="2" stroke-linecap="round" stroke-linejoin="round"/>
</g>
<defs>
<clipPath id="clip0_1_384">
<rect width="18" height="18" fill="white" transform="translate(0.887512 0.599976)"/>
</clipPath>
</defs>
</svg>
